<svg width="47" height="34" viewBox="0 0 47 34" fill="none" xmlns="http://www.w3.org/2000/svg">
<path d="M39.625 6.46867L35.526 8.552L23.2292 4.38013L10.9323 8.552L6.83333 6.46867L2.73438 25.2343H8.88542C8.88542 25.2343 17.0833 27.3228 23.2292 27.3228C29.3802 27.3228 37.5729 25.2343 37.5729 25.2343H43.724L39.625 6.46867Z" fill="black" fill-opacity="0.298"/>
<mask id="mask0_264_1315" style="mask-type:luminance" maskUnits="userSpaceOnUse" x="0" y="0" width="47" height="34">
<path d="M0.234375 0H46.224V33.9948H0.234375V0Z" fill="white"/>
</mask>
<g mask="url(#mask0_264_1315)">
<path d="M0.6875 26.8698C0.6875 27.0417 0.729167 27.2083 0.817708 27.3646C3.66667 32.4583 11.4375 33.7917 13.2135 33.849C13.224 33.849 13.2344 33.849 13.2448 33.849C13.5573 33.849 13.8542 33.6979 14.0365 33.4375L15.8333 30.9323C10.9948 29.6615 8.52604 27.5 8.38542 27.375C7.97917 27.0104 7.94271 26.3854 8.29688 25.974C8.48958 25.7448 8.76042 25.6302 9.03125 25.6302C9.26562 25.6302 9.49479 25.7135 9.67708 25.8802C9.72396 25.9167 14.276 29.8594 23.2292 29.8594C32.1771 29.8594 36.724 25.9323 36.7813 25.8802C36.9687 25.7135 37.1979 25.6302 37.4323 25.6302C37.6979 25.6302 37.9688 25.7448 38.1615 25.9688C38.5208 26.3802 38.4844 27.0104 38.0781 27.375C37.9375 27.5052 35.4635 29.6615 30.6302 30.9323L32.4219 33.4427C32.6094 33.6979 32.901 33.8542 33.2188 33.8542C33.2292 33.8542 33.2344 33.8542 33.2448 33.8542C35.0156 33.7969 42.7917 32.4635 45.6458 27.3646C45.7292 27.2083 45.7708 27.0417 45.7708 26.8698C45.7708 17.0469 41.6458 5.6875 39.5781 3.74479C35.6198 0.505209 29.4479 -0.0364583 29.1875 -0.0572917C29.1563 -0.062501 29.125 -0.0625 29.0938 -0.0625C28.7135 -0.0625 28.3698 0.171875 28.2135 0.53125C28.2031 0.557291 28.0677 0.869791 27.9167 1.35938C30.5 1.80208 33.6667 2.69792 36.5365 4.50521C36.9948 4.79688 37.1406 5.41146 36.8542 5.88021C36.6667 6.1875 36.3438 6.35417 36.0156 6.35417C35.8438 6.35417 35.6615 6.30208 35.5 6.20313C30.5781 3.08854 24.4167 2.93229 23.2292 2.93229C22.0469 2.93229 15.8854 3.08854 10.9531 6.20313C10.7917 6.30208 10.6146 6.34896 10.4375 6.34896C10.1094 6.34896 9.79167 6.18229 9.60417 5.88021C9.32292 5.41146 9.46354 4.79688 9.92188 4.50521C12.7917 2.69271 15.9583 1.80208 18.5417 1.35938C18.3906 0.869791 18.2552 0.552083 18.2448 0.526042C18.0833 0.171875 17.7344 -0.0625 17.3542 -0.0625C17.3229 -0.0625 17.2969 -0.062501 17.2708 -0.0572917C17.0052 -0.0364583 10.8385 0.505209 6.93229 3.69792C4.81771 5.6875 0.6875 17.0469 0.6875 26.8698ZM4.94271 23.5625C5.41667 18.3229 6.90625 13.224 8.17188 9.98438C8.85938 10.3333 9.63542 10.5208 10.4375 10.5208C11.3854 10.5208 12.3125 10.25 13.1198 9.73958C17.1823 7.17708 22.625 7.10417 23.2292 7.10417C23.8385 7.10417 29.276 7.17708 33.3438 9.74479C34.1458 10.2552 35.0729 10.5208 36.0208 10.5208C36.8281 10.5208 37.6042 10.3333 38.2969 9.97917C39.5573 13.2135 41.0365 18.3281 41.5208 23.5625C41.4271 23.4427 41.3333 23.3229 41.2344 23.2083C40.276 22.099 38.8854 21.4583 37.4271 21.4583C36.1927 21.4583 35.0052 21.9167 34.0781 22.7448C34 22.8073 30.4115 25.6927 23.2292 25.6927C16.0469 25.6927 12.4531 22.8021 12.3021 22.6823C11.4375 21.9115 10.2552 21.4635 9.03125 21.4635C7.5625 21.4635 6.17187 22.1094 5.20833 23.2292C5.11458 23.3385 5.02604 23.4479 4.94271 23.5625Z" fill="black"/>
</g>
<path d="M16.86 12.8125C14.9642 12.8125 13.4277 14.6042 13.4277 16.8021C13.4277 19.0052 14.9642 20.7917 16.86 20.7917C18.7559 20.7917 20.2871 19.0052 20.2871 16.8021C20.2871 14.599 18.7559 12.8125 16.86 12.8125ZM29.5996 12.8125C27.709 12.8125 26.1725 14.6042 26.1725 16.8021C26.1725 19.0052 27.7038 20.7917 29.5996 20.7917C31.4954 20.7917 33.0319 19.0052 33.0319 16.8021C33.0319 14.599 31.4954 12.8125 29.5996 12.8125Z" fill="black"/>
</svg>
