<svg width="33" height="34" viewBox="0 0 33 34" fill="none" xmlns="http://www.w3.org/2000/svg">
<mask id="mask0_264_1344" style="mask-type:luminance" maskUnits="userSpaceOnUse" x="0" y="0" width="33" height="34">
<path d="M0 0.59375H32.9688V33.5625H0V0.59375Z" fill="white"/>
</mask>
<g mask="url(#mask0_264_1344)">
<path d="M16.4792 3.5625C20.875 3.5625 21.3958 3.57812 23.1354 3.65625C24.7396 3.72917 25.6146 4 26.2031 4.22917C26.9688 4.52604 27.5156 4.88542 28.0938 5.46354C28.6719 6.04167 29.026 6.58854 29.3281 7.35938C29.5521 7.93229 29.8177 8.80729 29.901 10.4219C29.9792 12.1615 29.9948 12.6823 29.9948 17.0781C29.9948 21.4792 29.9792 22 29.901 23.7396C29.8281 25.3438 29.5573 26.2188 29.3281 26.8021C29.0312 27.5677 28.6719 28.1198 28.0938 28.6979C27.5156 29.276 26.9688 29.6302 26.2031 29.9323C25.625 30.1563 24.75 30.4219 23.1354 30.5C21.3958 30.5833 20.875 30.5938 16.4792 30.5938C12.0781 30.5938 11.5573 30.5833 9.81771 30.5C8.21354 30.4323 7.33854 30.1615 6.75521 29.9323C5.98958 29.6354 5.4375 29.276 4.85938 28.6979C4.28125 28.1198 3.92708 27.5677 3.625 26.8021C3.40104 26.224 3.13542 25.349 3.05729 23.7396C2.97396 22 2.96354 21.4792 2.96354 17.0781C2.96354 12.6823 2.97396 12.1615 3.05729 10.4219C3.125 8.81771 3.39583 7.94271 3.625 7.35938C3.92187 6.58854 4.28125 6.04167 4.85938 5.46354C5.4375 4.88542 5.98958 4.53125 6.75521 4.22917C7.33333 4.00521 8.20833 3.73958 9.81771 3.65625C11.5573 3.57812 12.0781 3.5625 16.4792 3.5625ZM16.4792 0.59375C12 0.59375 11.4427 0.614583 9.67708 0.697917C7.92187 0.776042 6.72396 1.05729 5.67708 1.46354C4.59375 1.88021 3.67708 2.44271 2.76042 3.36458C1.84896 4.28125 1.28646 5.19792 0.864583 6.28125C0.463542 7.32812 0.182292 8.52604 0.0989583 10.2813C0.020833 12.0365 0 12.599 0 17.0729C0 21.5521 0.020833 22.1094 0.0989583 23.8698C0.182292 25.625 0.463542 26.8229 0.864583 27.875C1.28646 28.9583 1.84896 29.875 2.76563 30.7917C3.68229 31.7083 4.59896 32.2708 5.68229 32.6927C6.73437 33.0938 7.93229 33.375 9.6875 33.4583C11.4427 33.5365 12.0052 33.5573 16.4844 33.5573C20.9635 33.5573 21.5208 33.5365 23.2813 33.4583C25.0365 33.375 26.2344 33.0938 27.2865 32.6927C28.3698 32.2708 29.2865 31.7083 30.2031 30.7917C31.1198 29.875 31.6823 28.9583 32.1042 27.875C32.5052 26.8229 32.7865 25.625 32.8698 23.8698C32.9479 22.1146 32.9688 21.5521 32.9688 17.0729C32.9688 12.5938 32.9479 12.0365 32.8698 10.276C32.7865 8.52083 32.5052 7.32292 32.1042 6.27083C31.6823 5.1875 31.1198 4.27083 30.2031 3.35417C29.2865 2.4375 28.3698 1.875 27.2865 1.45313C26.2344 1.05208 25.0365 0.770833 23.2813 0.6875C21.5208 0.614584 20.9583 0.59375 16.4792 0.59375Z" fill="#33F3AA"/>
</g>
<path d="M16.4792 8.61475C11.8021 8.61475 8.01562 12.4012 8.01562 17.0731C8.01562 21.745 11.8125 25.5418 16.4844 25.5418C21.1563 25.5418 24.9531 21.7554 24.9531 17.0731C24.9427 12.4012 21.151 8.61475 16.4792 8.61475ZM16.4792 22.5679C13.4427 22.5679 10.9896 20.1147 10.9896 17.0783C10.9896 14.047 13.4427 11.5887 16.4792 11.5887C19.5104 11.5887 21.9688 14.047 21.9688 17.0783C21.974 20.1095 19.5104 22.5679 16.4792 22.5679Z" fill="#33F3AA"/>
<path d="M27.2552 8.28141C27.2552 9.36995 26.3646 10.2606 25.276 10.2606C24.1875 10.2606 23.2969 9.36995 23.2969 8.28141C23.2969 7.19287 24.1875 6.30225 25.276 6.30225C26.3646 6.30225 27.2552 7.18245 27.2552 8.28141Z" fill="#33F3AA"/>
</svg>
