<svg width="38" height="32" viewBox="0 0 38 32" fill="none" xmlns="http://www.w3.org/2000/svg">
<mask id="mask0_264_192" style="mask-type:luminance" maskUnits="userSpaceOnUse" x="0" y="0" width="38" height="32">
<path d="M0.21875 0.635742H37.1875V31.5628H0.21875V0.635742Z" fill="white"/>
</mask>
<g mask="url(#mask0_264_192)">
<path d="M33.3701 8.91699C33.391 9.2399 33.391 9.56803 33.391 9.90136C33.391 19.9587 25.7816 31.5628 11.8597 31.5628V31.5576C7.75033 31.5628 3.72428 30.3753 0.260742 28.1409C0.8597 28.2139 1.45866 28.2503 2.06283 28.2503C5.46908 28.2555 8.78158 27.1045 11.4587 24.9847C8.22428 24.9274 5.38053 22.8024 4.39095 19.6982C5.52637 19.9222 6.69303 19.8753 7.80762 19.568C4.27637 18.8493 1.7347 15.7295 1.7347 12.1045C1.7347 12.0732 1.7347 12.042 1.7347 12.0107C2.78678 12.5993 3.96908 12.9274 5.1722 12.9639C1.84408 10.7295 0.823241 6.27636 2.82845 2.7972C6.6722 7.55241 12.3389 10.443 18.4274 10.7503C17.8128 8.10449 18.6514 5.33366 20.6149 3.47949C23.6618 0.594072 28.4587 0.739905 31.3232 3.80761C33.016 3.46907 34.641 2.84407 36.1253 1.95866C35.5628 3.72428 34.3805 5.21907 32.8024 6.16699C34.3024 5.9899 35.766 5.58886 37.1462 4.96907C36.1305 6.50032 34.8493 7.83886 33.3701 8.91699Z" fill="#33F3AA"/>
</g>
</svg>
