<svg width="43" height="33" viewBox="0 0 43 33" fill="none" xmlns="http://www.w3.org/2000/svg">
<mask id="mask0_264_1343" style="mask-type:luminance" maskUnits="userSpaceOnUse" x="0" y="0" width="43" height="33">
<path d="M0.0683594 0.635742H42.9798V32.5628H0.0683594V0.635742Z" fill="white"/>
</mask>
<g mask="url(#mask0_264_1343)">
<path d="M13.1931 1.24517C10.7973 1.7608 8.10458 2.85976 6.64104 3.95351C5.73479 4.60976 5.34416 5.16705 4.50562 6.92226C2.3025 11.5212 0.630622 18.1983 0.281663 23.8077C0.114996 26.2348 0.114996 26.2556 0.79208 27.2139C2.18271 29.2712 5.68791 31.2556 9.35979 32.0941C10.5421 32.3754 11.7504 32.5629 12.0525 32.516C12.4223 32.4691 13.0265 31.9066 13.839 30.8129C14.5629 29.8285 15.2087 29.1775 15.464 29.1983C15.6775 29.2243 16.6723 29.3389 17.6723 29.5056C19.9952 29.8285 23.1046 29.8285 25.4275 29.5056C26.4275 29.3389 27.4223 29.2243 27.6358 29.1983C27.891 29.1775 28.5369 29.8285 29.2608 30.8129C30.0733 31.9066 30.6775 32.4691 31.0473 32.516C31.3494 32.5629 32.5577 32.3754 33.74 32.0941C37.4119 31.2556 40.9171 29.2712 42.3077 27.2139C42.9848 26.2556 42.9848 26.2348 42.8181 23.8493C42.4692 18.1983 40.7973 11.5681 38.5942 6.92226C37.7556 5.16705 37.365 4.60976 36.4587 3.95351C34.9015 2.81288 32.2556 1.7608 29.49 1.17747C26.8233 0.641008 26.4952 0.708717 26.0785 1.96913L25.7973 2.76601H17.2765L17.115 2.1358C16.7192 0.661841 16.3494 0.594133 13.1931 1.24517ZM32.115 3.83892C34.6254 4.67747 35.8285 5.61497 36.7348 7.31809C38.7556 11.1931 40.589 18.3858 40.964 23.8077L41.1254 25.9066L39.9171 27.0264C38.5004 28.3598 36.0837 29.5733 33.5108 30.2296L31.6515 30.7191L30.9067 29.8285C30.49 29.3389 30.141 28.8285 30.141 28.6879C30.141 28.5681 30.9535 28.1046 31.9535 27.7035C34.0421 26.8181 35.9483 25.4848 35.9483 24.9014C35.9483 24.4118 35.5265 23.9223 35.089 23.9223C34.9223 23.9223 34.2296 24.2973 33.5525 24.74C32.0212 25.766 29.9535 26.6098 27.4015 27.24C24.5004 27.9639 18.5994 27.9639 15.6983 27.24C13.1462 26.6098 11.0785 25.766 9.54729 24.74C8.87021 24.2973 8.1775 23.9223 8.01083 23.9223C7.57333 23.9223 7.15146 24.4118 7.15146 24.9014C7.15146 25.4848 9.05771 26.8181 11.1723 27.7035C12.1462 28.1046 12.9587 28.5681 12.9587 28.6879C12.9587 28.8285 12.6098 29.3389 12.1931 29.8285L11.4483 30.7191L9.58896 30.2296C7.01604 29.5733 4.59937 28.3598 3.1827 27.0264L2.00041 25.9066L2.13583 23.8077C2.53166 18.2712 4.43791 10.9379 6.47958 7.10976C7.01604 6.10455 7.45354 5.61497 8.38583 5.05247C9.8702 4.14101 12.6358 3.18267 14.2817 2.97434C16.0681 2.76601 15.839 3.22955 13.839 3.83892C12.9119 4.12017 11.3546 4.75038 10.3598 5.2608C8.84937 6.03163 8.54729 6.26601 8.54729 6.75559C8.54729 7.83372 9.29208 7.90143 11.0317 7.03684C14.4223 5.33372 17.3702 4.67747 21.5473 4.67747C25.7765 4.67747 28.0733 5.16705 31.8129 6.92226C33.5108 7.71392 33.9015 7.83372 34.2035 7.5733C34.391 7.41184 34.5525 7.03684 34.5525 6.73476C34.5525 6.26601 34.2296 6.0108 32.74 5.2608C31.7452 4.75038 30.1879 4.12017 29.2608 3.83892C27.6775 3.34934 27.4015 3.16184 27.7244 2.85976C27.891 2.69309 30.2556 3.22955 32.115 3.83892Z" fill="#33F3AA"/>
</g>
<path d="M14.0054 14.2084C10.9846 15.5625 10.4481 19.9271 13.0262 22.2188C15.0731 24.0156 18.0419 23.1979 19.2502 20.5365C20.9012 16.8906 17.4169 12.6875 14.0054 14.2084ZM16.6252 16.1198C17.8804 16.9844 18.1825 18.9011 17.3023 20.2084C16.3023 21.7031 14.7241 21.7031 13.7241 20.2084C12.5419 18.4323 13.6304 15.75 15.5106 15.75C15.8387 15.75 16.3491 15.9115 16.6252 16.1198Z" fill="#33F3AA"/>
<path d="M26.0784 14.2084C23.0576 15.5625 22.5264 19.9271 25.1045 22.2188C27.1461 24.0156 30.1201 23.1979 31.3232 20.5365C32.9743 16.8906 29.4899 12.6875 26.0784 14.2084ZM28.7034 16.1198C29.9534 16.9844 30.2555 18.9011 29.3753 20.2084C28.3753 21.7031 26.7972 21.7031 25.7972 20.2084C24.6149 18.4323 25.7086 15.75 27.5889 15.75C27.9118 15.75 28.4222 15.9115 28.7034 16.1198Z" fill="#33F3AA"/>
</svg>
