<svg width="33" height="32" viewBox="0 0 33 32" fill="none" xmlns="http://www.w3.org/2000/svg">
<path d="M22.6358 9.81807L19.9118 22.6097C19.7764 23.2399 19.0264 23.5264 18.5004 23.1462L12.0212 18.3285L19.1723 11.8649C19.1723 11.8649 19.6566 11.4743 19.5212 11.3493C19.3754 11.2035 18.8493 11.5264 18.5681 11.7139C18.2973 11.9014 9.81288 17.2608 9.81288 17.2608L5.53163 15.917C5.04726 15.766 5.04725 15.1097 5.74517 14.8129L21.5577 8.72432C22.2295 8.38578 22.7816 9.16703 22.6358 9.81807Z" fill="#33F3AA"/>
<mask id="mask0_264_1342" style="mask-type:luminance" maskUnits="userSpaceOnUse" x="0" y="0" width="33" height="32">
<path d="M0.146484 0H32.1152V31.9688H0.146484V0Z" fill="white"/>
</mask>
<g mask="url(#mask0_264_1342)">
<path d="M16.1309 31.9688C7.32357 31.9688 0.146484 24.8021 0.146484 15.9844C0.146484 7.17708 7.32357 0 16.1309 0C24.9486 0 32.1152 7.17708 32.1152 15.9844C32.1152 24.8021 24.9486 31.9688 16.1309 31.9688ZM16.1309 0.875C7.79232 0.875 1.02148 7.64583 1.02148 15.9844C1.02148 24.3177 7.79232 31.0938 16.1309 31.0938C24.4642 31.0938 31.2402 24.3177 31.2402 15.9844C31.2402 7.64583 24.4642 0.875 16.1309 0.875Z" fill="#33F3AA"/>
</g>
</svg>
