<svg width="271" height="26" viewBox="0 0 271 26" fill="none" xmlns="http://www.w3.org/2000/svg">
<mask id="mask0_264_1047" style="mask-type:luminance" maskUnits="userSpaceOnUse" x="122" y="0" width="27" height="26">
<path d="M122.068 0H148.735V25.9896H122.068V0Z" fill="white"/>
</mask>
<g mask="url(#mask0_264_1047)">
<path d="M148.344 12.9948C148.344 20.1823 142.552 25.9896 135.381 25.9896C128.209 25.9896 122.417 20.1823 122.417 12.9948C122.417 5.80729 128.209 0 135.381 0C142.552 0 148.344 5.80729 148.344 12.9948Z" fill="#33F3AA"/>
</g>
<path d="M188.672 12.9948C188.672 18.5833 184.151 23.1146 178.578 23.1146C173.005 23.1146 168.479 18.5833 168.479 12.9948C168.479 7.41146 173.005 2.875 178.578 2.875C184.151 2.875 188.672 7.41146 188.672 12.9948ZM221.771 4.3125C216.974 4.3125 213.109 8.18229 213.109 12.9948C213.109 17.8073 216.974 21.6771 221.771 21.6771C226.573 21.6771 230.432 17.8073 230.432 12.9948C230.432 8.18229 226.573 4.3125 221.771 4.3125ZM5.73438 7.24479C2.59375 7.24479 0 9.78646 0 12.9948C0 16.2031 2.59375 18.7448 5.73438 18.7448C8.9375 18.7448 11.474 16.1458 11.474 12.9948C11.474 9.84375 8.9375 7.24479 5.73438 7.24479ZM264.969 7.24479C261.771 7.24479 259.229 9.84375 259.229 12.9948C259.229 16.1458 261.823 18.7448 264.969 18.7448C268.167 18.7448 270.708 16.1458 270.708 12.9948C270.708 9.84375 268.167 7.24479 264.969 7.24479ZM92.1823 2.875C86.6146 2.875 82.0885 7.41146 82.0885 12.9948C82.0885 18.5833 86.6146 23.1146 92.1823 23.1146C97.7552 23.1146 102.281 18.5833 102.281 12.9948C102.281 7.41146 97.7552 2.875 92.1823 2.875ZM48.9896 4.3125C44.1875 4.3125 40.3281 8.18229 40.3281 12.9948C40.3281 17.8073 44.1875 21.6771 48.9896 21.6771C53.7865 21.6771 57.651 17.8073 57.651 12.9948C57.651 8.18229 53.7344 4.3125 48.9896 4.3125Z" fill="#1E6664"/>
</svg>
