<svg width="43" height="39" viewBox="0 0 43 39" fill="none" xmlns="http://www.w3.org/2000/svg">
<mask id="mask0_264_1338" style="mask-type:luminance" maskUnits="userSpaceOnUse" x="0" y="1" width="38" height="38">
<path d="M0 1.83008H37.0999V38.93H0V1.83008Z" fill="white"/>
</mask>
<g mask="url(#mask0_264_1338)">
<mask id="mask1_264_1338" style="mask-type:luminance" maskUnits="userSpaceOnUse" x="0" y="1" width="38" height="38">
<path d="M18.5521 1.83008C8.30505 1.83008 0 10.1351 0 20.3822C0 30.6249 8.30505 38.93 18.5521 38.93C28.7948 38.93 37.0999 30.6249 37.0999 20.3822C37.0999 10.1351 28.7948 1.83008 18.5521 1.83008Z" fill="white"/>
</mask>
<g mask="url(#mask1_264_1338)">
<path d="M18.5521 1.83008C8.30505 1.83008 0 10.1351 0 20.3822C0 30.6249 8.30505 38.93 18.5521 38.93C28.7948 38.93 37.0999 30.6249 37.0999 20.3822C37.0999 10.1351 28.7948 1.83008 18.5521 1.83008Z" stroke="#69F6CA" stroke-width="6.52974"/>
</g>
</g>
<mask id="mask2_264_1338" style="mask-type:luminance" maskUnits="userSpaceOnUse" x="3" y="0" width="40" height="34">
<path d="M3.60938 0H42.3591V33.8002H3.60938V0Z" fill="white"/>
</mask>
<g mask="url(#mask2_264_1338)">
<path d="M42.1096 0.511146C41.4952 0.352178 40.8851 0.193208 40.2707 0.0342397C40.2234 0.00846045 40.1676 -0.000131084 40.0988 0.0127575C40.0645 0.0127575 40.0387 0.0213501 40.0129 0.0342397C39.8926 0.0729076 39.7766 0.115872 39.6563 0.158837C39.261 0.309213 38.8658 0.472478 38.4791 0.644336C37.8948 0.902124 37.3276 1.18569 36.7691 1.48644C36.0129 1.89031 35.2825 2.32425 34.5693 2.78397C33.6799 3.3597 32.8163 3.96979 31.9871 4.61426C31.0161 5.36614 30.0881 6.16528 29.203 6.99879C28.1848 7.9612 27.2224 8.97516 26.3115 10.0278C25.2847 11.2222 24.3223 12.4682 23.4329 13.7571C22.4318 15.205 21.521 16.7088 20.6917 18.2512C19.7594 19.987 18.9345 21.77 18.2041 23.5831C18.0623 23.9354 17.9248 24.292 17.7873 24.6486C17.319 24.2791 16.8464 23.9139 16.3781 23.5444C15.1407 22.582 13.9076 21.6153 12.6746 20.6529C11.536 19.7679 10.4017 18.8828 9.26747 17.9977C8.97961 17.77 8.69174 17.5466 8.40388 17.3189C8.33084 17.263 8.2664 17.2072 8.17617 17.1728C7.88831 17.0654 7.59185 16.9236 7.2954 16.8506C7.18369 16.8205 7.03761 16.8592 6.9259 16.8763C6.72397 16.9064 6.52633 16.9408 6.32869 16.9709C6.2041 16.9881 6.03224 16.9881 5.92912 17.0611C5.86897 17.1041 5.84319 17.1556 5.80882 17.2115C5.49088 17.7313 5.17295 18.2555 4.85501 18.7754C4.49841 19.3554 4.1461 19.9354 3.78949 20.5197C3.70786 20.6529 3.61333 20.7689 3.64341 20.9322C3.67349 21.1212 3.71645 21.3103 3.75512 21.4993C3.8969 22.2254 4.03868 22.9515 4.18047 23.6776C4.22343 23.9011 4.2578 24.1288 4.30936 24.3522C4.34373 24.4811 4.43825 24.5498 4.56715 24.5971C4.67885 24.6357 4.79056 24.6787 4.90227 24.7217C4.94524 24.7346 4.9839 24.7518 5.02257 24.7646C5.04405 24.7732 5.06554 24.7818 5.08702 24.7904C5.09991 24.7947 5.1085 24.799 5.12139 24.8033C5.12139 24.8076 5.12569 24.8076 5.12569 24.8076C5.23739 24.8506 5.3491 24.8935 5.46081 24.9408C6.10098 25.19 6.72826 25.4564 7.35555 25.7313C9.2331 26.552 11.072 27.4585 12.8464 28.4596C14.9302 29.6411 16.9409 30.9558 18.724 32.5069C19.1536 32.8763 19.5661 33.263 19.9613 33.6626C20.0988 33.8001 20.3824 33.7313 20.4254 33.5466C20.4812 33.3146 20.5457 33.0826 20.6058 32.8506C20.782 32.2061 20.971 31.5616 21.1729 30.9215C21.478 29.9505 21.8045 28.9795 22.1568 28.0214C22.5994 26.8012 23.0806 25.5896 23.5919 24.3951C24.1848 23.016 24.8206 21.6583 25.5081 20.3221C26.26 18.8527 27.0763 17.4091 27.9571 16.0042C28.8765 14.5348 29.869 13.1084 30.9474 11.7378C32.0473 10.3414 33.2374 9.00954 34.5306 7.75927C35.8239 6.51329 37.2245 5.34896 38.7326 4.3221C39.4973 3.80653 40.2879 3.32103 41.0999 2.8742C41.289 2.77538 41.5682 2.68515 41.6584 2.49181C41.6885 2.42737 41.71 2.35862 41.7358 2.29418C41.8518 1.98913 41.9721 1.68838 42.0881 1.38762C42.1611 1.19858 42.2299 1.01383 42.3029 0.829084C42.3545 0.695894 42.2471 0.549815 42.1096 0.511146Z" fill="white"/>
</g>
</svg>
