<svg width="40" height="34" viewBox="0 0 40 34" fill="none" xmlns="http://www.w3.org/2000/svg">
<mask id="mask0_264_1299" style="mask-type:luminance" maskUnits="userSpaceOnUse" x="0" y="0" width="40" height="34">
<path d="M0.375 0H39.3646V33.8021H0.375V0Z" fill="white"/>
</mask>
<g mask="url(#mask0_264_1299)">
<path fill-rule="evenodd" clip-rule="evenodd" d="M38.3232 0.697874C38.8544 1.16142 39.094 1.88537 38.9377 2.58329L32.3492 32.2604C32.2034 32.9062 31.7398 33.4322 31.1252 33.6458C30.5055 33.8645 29.8232 33.7395 29.318 33.3177L20.7034 26.151L17.0888 32.7656C16.719 33.4427 15.9846 33.8281 15.2242 33.7395C14.469 33.651 13.8388 33.1093 13.6305 32.3645L10.1773 20.0833L1.88566 18.3958C1.07316 18.2291 0.45858 17.5416 0.380455 16.6979C0.302329 15.8593 0.776288 15.0625 1.54712 14.7448L36.3961 0.385374C37.0471 0.119749 37.7867 0.239541 38.3232 0.697874ZM8.7867 15.8958L12.0419 16.5573C12.7346 16.6979 13.2919 17.2187 13.4846 17.9062L16.0055 26.8645L18.5055 22.2916C18.7763 21.7968 19.2502 21.4479 19.7971 21.3385C20.344 21.2343 20.9117 21.3802 21.344 21.7395L29.344 28.3906L34.4742 5.30725L8.7867 15.8958Z" fill="black"/>
</g>
<mask id="mask1_264_1299" style="mask-type:luminance" maskUnits="userSpaceOnUse" x="0" y="0" width="40" height="21">
<path d="M0.375 0H39.3646V20.4688H0.375V0Z" fill="white"/>
</mask>
<g mask="url(#mask1_264_1299)">
<path fill-rule="evenodd" clip-rule="evenodd" d="M38.1044 3.78123C38.9325 3.24998 39.2242 2.17185 38.7763 1.28644C38.3336 0.406229 37.2971 0.0103954 36.3961 0.385395L1.54712 14.7448C0.776288 15.0625 0.302329 15.8594 0.380455 16.6979C0.45858 17.5416 1.07316 18.2291 1.88566 18.3958L11.3023 20.3125C11.7763 20.4062 12.2711 20.3177 12.6773 20.0521L38.1044 3.78123Z" fill="black"/>
</g>
<mask id="mask2_264_1299" style="mask-type:luminance" maskUnits="userSpaceOnUse" x="16" y="0" width="24" height="34">
<path d="M16.959 0H39.3652V33.8021H16.959V0Z" fill="white"/>
</mask>
<g mask="url(#mask2_264_1299)">
<path fill-rule="evenodd" clip-rule="evenodd" d="M38.9378 2.58343C39.1305 1.71364 38.7139 0.828226 37.9274 0.4376C37.141 0.0521844 36.1983 0.260517 35.6462 0.948017L18.693 22.0105C18.0316 22.8282 18.1514 24.0314 18.9587 24.7032L29.318 33.3178C29.8233 33.7397 30.5055 33.8647 31.1253 33.6459C31.7399 33.4324 32.2035 32.9064 32.3493 32.2605L38.9378 2.58343Z" fill="black"/>
</g>
</svg>
