<svg width="40" height="34" viewBox="0 0 40 34" fill="none" xmlns="http://www.w3.org/2000/svg">
<mask id="mask0_264_1294" style="mask-type:luminance" maskUnits="userSpaceOnUse" x="0" y="0" width="40" height="34">
<path d="M0 0.46875H39.9896V33.9948H0V0.46875Z" fill="white"/>
</mask>
<g mask="url(#mask0_264_1294)">
<path d="M35.8594 9.1354C35.8802 9.49478 35.8802 9.85415 35.8802 10.2187C35.8802 21.2604 27.6458 33.9896 12.5938 33.9896V33.9844C8.14583 33.9948 3.78646 32.6927 0.046875 30.2396C0.692708 30.3177 1.34375 30.3594 1.99479 30.3594C5.67708 30.3646 9.26042 29.0989 12.1615 26.776C8.65625 26.7083 5.58333 24.375 4.51042 20.9739C5.73958 21.2135 7.00521 21.1667 8.20833 20.8281C4.39063 20.0417 1.64063 16.6146 1.64063 12.6406C1.64063 12.6042 1.64063 12.5677 1.64063 12.5312C2.78125 13.1771 4.05208 13.5364 5.35417 13.5781C1.76042 11.125 0.651041 6.23957 2.82292 2.42186C6.97917 7.64061 13.1094 10.8177 19.6927 11.151C19.0313 8.24999 19.9323 5.20832 22.0625 3.16665C25.3594 0.00519448 30.5417 0.166654 33.6406 3.53124C35.474 3.16144 37.2344 2.47394 38.8385 1.50519C38.2292 3.43749 36.9531 5.07811 35.2448 6.12499C36.8646 5.92707 38.4531 5.48436 39.9427 4.80728C38.8438 6.48957 37.4583 7.95311 35.8594 9.1354Z" fill="black"/>
</g>
</svg>
